<?xml version="1.0" encoding="utf-8"?>
<!-- Uploaded to: SVG Repo, www.svgrepo.com, Generator: SVG Repo Mixer Tools -->
<svg fill="#000000" width="800px" height="800px" viewBox="0 0 32 32" version="1.1" xmlns="http://www.w3.org/2000/svg">
<title>signal</title>
<path d="M2 25.25c-0.414 0-0.75 0.336-0.75 0.75v0 4c0 0.414 0.336 0.75 0.75 0.75s0.75-0.336 0.75-0.75v0-4c-0-0.414-0.336-0.75-0.75-0.75v0zM8.968 19.25c-0.414 0-0.75 0.336-0.75 0.75v0 10c0 0.414 0.336 0.75 0.75 0.75s0.75-0.336 0.75-0.75v0-10c-0-0.414-0.336-0.75-0.75-0.75v0zM16 13.25c-0.414 0-0.75 0.336-0.75 0.75v0 16c0 0.414 0.336 0.75 0.75 0.75s0.75-0.336 0.75-0.75v0-16c-0-0.414-0.336-0.75-0.75-0.75v0zM30 1.25c-0.414 0-0.75 0.336-0.75 0.75v0 28c0 0.414 0.336 0.75 0.75 0.75s0.75-0.336 0.75-0.75v0-28c-0-0.414-0.336-0.75-0.75-0.75v0zM23 7.249c-0.414 0-0.75 0.336-0.75 0.75v0 22.001c0 0.414 0.336 0.75 0.75 0.75s0.75-0.336 0.75-0.75v0-22.001c-0-0.414-0.336-0.75-0.75-0.75v0z"></path>
</svg>